<svg xmlns="http://www.w3.org/2000/svg" viewBox="0 0 576 512"><defs><style>.cls-1{fill:#121212;}</style></defs><title>cart</title><g id="Layer_2" data-name="Layer 2"><g id="Layer_1-2" data-name="Layer 1"><path class="cls-1" d="M552,64H144.28l-8.73-44.61A24,24,0,0,0,112,0H12A12,12,0,0,0,0,12V36A12,12,0,0,0,12,48H92.24l69.59,355.7A64,64,0,1,0,263.42,416H408.58a64,64,0,1,0,99.74-14.14l1-4.76A24,24,0,0,0,485.91,368H203.76l-9.39-48h312.4a24,24,0,0,0,23.46-18.9l45.21-208A24,24,0,0,0,552,64ZM208,472a24,24,0,1,1,24-24A24,24,0,0,1,208,472Zm256,0a24,24,0,1,1,24-24A24,24,0,0,1,464,472Zm23.44-200H185L153.67,112H522.22L487.44,272Z"/></g></g></svg>